PathFileType	4	(X/Y/Z)	C:/Users/beibeiliu/ov580/test_trc/capture2\sequence.11_training_dense_right.trc
DataRate	CameraRate	NumFrames	NumMarkers	Units	OrigDataRate	OrigDataStartFrame	OrigNumFrames
120	120	18	19	mm	120	1	350
Frame#	Time	ThumbCMC			ThumbMCP			ThumbIP			ThumbTip			IndexMCP			IndexPIP			IndexTip			MiddleMCP			MiddlePIP			MiddleTip			RingMCP			RingPIP			RingTip			PinkyMCP			PinkyPIP			PinkyTip			BackHand1			BackHand2			BackHand3	
		X0	Y0	Z0	X1	Y1	Z1	X2	Y2	Z2	X3	Y3	Z3	X4	Y4	Z4	X5	Y5	Z5	X6	Y6	Z6	X7	Y7	Z7	X8	Y8	Z8	X9	Y9	Z9	X10	Y10	Z10	X11	Y11	Z11	X12	Y12	Z12	X13	Y13	Z13	X14	Y14	Z14	X15	Y15	Z15	X16	Y16	Z16	X17	Y17	Z17	X18	Y18	Z18	
0	0	122.962	37.1284	-30.0572	99.3612	27.4416	-47.5956	84.7432	22.9471	-70.1389	73.3978	19.5237	-88.1943	140.561	47.0355	-102.778	137.239	43.0813	-130.548	134.624	44.5678	-150.887	171.472	46.0587	-105.104	172.507	43.34	-130.686	181.406	41.3707	-158.165	189.171	36.2576	-99.585	196.763	31.6317	-123.132	206.747	27.7561	-147.922	206.516	25.3581	-84.1835	219.356	19.0422	-100.194	235.433	19.0728	-114.048	182.36	48.8092	-50.3493	178.371	53.9407	-19.6039	150.174	56.5548	-38.3243	
1	0.00833333	120.503	36.7186	-35.4422	103.157	26.1455	-47.3624	85.7915	22.7424	-72.1546	70.6276	19.6357	-85.5285	140.158	45.7568	-103.195	134.749	43.9207	-130.181	137.967	43.455	-154.831	167.278	45.5138	-105.175	172.15	42.5095	-135.129	180.897	41.2885	-160.387	186.861	36.2816	-102.604	199.687	30.3141	-119.654	204.585	27.3578	-148.172	205.146	24.2918	-83.939	219.856	18.1106	-101.298	233.363	17.9622	-119.334	181.537	47.4209	-50.5975	178.132	51.8105	-20.2958	149.636	56.8711	-41.8719	
2	0.0166667	119.514	38.0661	-30.501	103.461	26.5685	-50.2361	84.6741	24.0144	-71.3492	73.3142	20.979	-88.046	140.942	46.8233	-103.925	134.52	44.6635	-126.701	139.014	44.0979	-151.919	168.486	46.2245	-110.455	171.897	43.2335	-134.966	181.437	41.1064	-162.111	189.62	36.1759	-100.859	195.84	31.221	-120.734	204.957	26.5339	-147.076	206.283	25.5413	-85.5055	218.656	17.1465	-99.1748	232.404	17.7251	-115.534	183.019	47.9629	-51.7656	182.036	52.438	-22.8378	152.102	57.8814	-40.2881	
3	0.025	118.563	37.5969	-33.3169	101.127	26.6971	-47.1923	85.0596	23.2828	-72.6157	70.7661	19.8526	-88.1483	139.104	47.1713	-101.611	134.817	44.1834	-130.781	140.305	43.3309	-153.588	172.086	45.1469	-107.29	175.754	41.4815	-135.106	182.768	38.1937	-159.814	188.594	36.3786	-102.479	197.953	30.05	-124.2	203.321	24.5802	-147.831	205.637	24.0001	-84.0415	216.433	15.7658	-97.7441	235.193	14.2853	-118.025	180.738	49.0887	-51.7472	180.152	49.4049	-19.7197	148.978	56.5758	-43.6713	
4	0.0333333	117.884	39.138	-34.9899	102.251	26.8067	-48.5428	84.9013	23.4132	-71.1674	72.0487	18.6445	-89.7118	141.481	48.4229	-105.447	135.562	46.1479	-127.945	141.185	42.7144	-153.158	167.748	46.3408	-104.775	174.052	40.6511	-135.515	179.729	37.746	-158.976	187.375	35.1776	-97.7184	195.46	28.9616	-125.496	203.769	22.9326	-149.474	206.12	22.2233	-81.0044	219.092	14.0599	-101.695	234.642	9.54752	-118.54	181.507	48.1104	-48.3171	183.771	50.5954	-19.3511	154.542	56.2294	-39.1724	
5	0.0416667	119.213	38.4052	-36.7953	104.77	25.5297	-50.1226	88.0676	21.4011	-67.9956	74.9683	17.044	-87.7621	139.817	48.6133	-104.329	140.972	45.0589	-131.367	136.507	42.7496	-157.102	171.55	45.7158	-105.021	177.516	40.5762	-132.534	180.039	34.854	-158.465	188.137	35.2728	-101.84	198.727	28.0606	-122.56	200.746	20.252	-146.722	209.408	20.4605	-84.0767	216.677	13.1366	-99.7798	236.798	6.09773	-119.625	186.843	46.0247	-50.8773	182.128	49.4067	-22.8468	155.72	56.226	-43.5918	
6	0.05	122.147	37.6434	-36.6898	102.112	27.0584	-49.5622	84.0708	22.7435	-71.3181	72.6658	16.9692	-88.1962	142.772	48.7092	-105.309	137.624	45.6794	-132.588	143.662	39.7731	-156.839	170.723	46.8178	-107.007	176.693	40.1815	-133.874	181.856	31.069	-161.155	193.182	34.0277	-101.223	200.419	25.7942	-123.316	203.975	16.1847	-146.88	206.674	20.3334	-83.1327	220.812	7.96031	-100.65	235.677	0.639148	-121.105	184.333	47.5042	-48.9009	180.445	49.05	-21.1599	154.502	56.0774	-43.5828	
7	0.0583333	121.338	37.4934	-32.5452	103.156	26.2422	-50.4946	86.594	21.9144	-71.3863	74.4463	17.083	-91.6905	142.138	50.0006	-105.297	141.747	44.0654	-134.107	142.153	38.7474	-159.45	174.028	44.9822	-107.94	177.954	38.5576	-135.288	184.95	26.0406	-164.435	194.44	31.8416	-101.312	201.852	23.1881	-124.399	200.809	14.3781	-147.621	207.116	19.1978	-81.4763	217.587	8.62358	-99.0308	235.029	-1.27361	-119.046	185.53	47.094	-52.7196	181.9	48.0199	-18.6867	153.205	56.7414	-40.3753	
8	0.0666667	124.794	35.8546	-36.9688	103.776	25.3833	-50.0034	89.8285	21.2997	-70.2381	76.5133	16.4504	-90.0232	144.956	48.6344	-105.831	141.324	45.4169	-131.988	144.175	38.9605	-154.307	175.383	44.8935	-105.687	179.536	36.9439	-136.71	181.539	27.0115	-158.715	191.389	33.3084	-97.4378	198.743	24.246	-121.999	201.762	10.8845	-149.833	209.373	17.4444	-82.1255	217.686	6.65167	-101.976	233.143	-5.07128	-116.86	190.238	44.2617	-49.628	186.134	44.5742	-20.4926	157.374	53.7024	-38.2327	
9	0.075	122.986	37.9804	-32.7009	104.075	25.3212	-51.2841	89.4528	22.2378	-71.1419	77.5812	17.6554	-93.2113	148.089	49.7836	-105.866	140.76	46.5627	-128.684	143.585	38.0084	-157.041	173.946	47.3264	-108.793	179.975	38.0646	-136.75	181.406	27.6729	-160.106	193.335	33.6085	-97.4282	198.734	25.1903	-122.425	200.543	11.6986	-148.46	211.861	16.6673	-81.5803	219.378	6.63022	-101.303	230.75	-2.51524	-121.145	185.188	43.4152	-47.9759	186.519	43.8367	-21.6509	160.303	55.3277	-37.3443	
10	0.0833333	126.221	37.4344	-35.8673	102.706	26.8755	-53.4752	87.0758	21.8647	-73.0152	79.3583	16.308	-95.2526	146.617	50.4518	-102.013	141.234	46.1175	-132.581	147.432	39.4372	-154.731	176.684	45.9093	-107.238	183.052	39.4735	-132.718	183.915	26.2272	-159.743	196.252	33.0484	-100.404	201.188	24.9994	-123	201.785	11.4194	-148.081	212.471	15.4737	-81.4467	219.448	6.48909	-101.389	232.225	-4.70697	-123.971	186.007	43.4042	-46.0988	185.644	45.3035	-17.6524	159.218	52.9525	-37.1452	
11	0.0916667	124.422	35.0225	-30.9667	108.235	24.0802	-51.4482	89.0573	20.333	-76.4131	78.1263	15.6562	-96.7319	145.057	48.8574	-103.743	144.016	44.9079	-131.265	145.251	37.6642	-156.571	173.729	45.2953	-103.706	181.826	38.7183	-133.679	181.781	27.7702	-160.417	195.728	32.7366	-98.7979	202.423	23.6355	-121.67	201.23	10.0962	-149.144	210.162	16.6464	-85.6614	221.808	4.661	-103.019	233.097	-6.53179	-121.254	189.018	41.542	-50.0275	184.987	42.7332	-18.6057	155.961	52.4699	-40.9412	
12	0.1	122.823	35.9923	-32.3271	107.728	24.173	-51.9191	91.3615	20.4875	-71.3733	80.2827	17.0196	-92.6661	145.628	50.1437	-105.737	145.421	44.7657	-130.829	143.658	39.6735	-152.318	175.663	46.0725	-108.147	184.544	36.6703	-134.946	185.83	26.5706	-159.463	195.737	32.5596	-99.7098	205.046	22.0912	-123.986	202.091	12.1086	-148.961	213.08	15.478	-83.3764	220.533	5.21075	-101.712	231.466	-5.66541	-121.659	188.341	43.5652	-48.4583	185.174	41.7107	-19.142	157.233	54.3221	-37.0143	
13	0.108333	128.428	36.8728	-35.8553	107.886	25.8903	-53.1507	93.7533	23.512	-73.9542	81.1111	19.4611	-91.6264	151.495	50.0047	-103.416	149.029	46.8441	-131.078	147.401	40.5948	-158.373	181.683	45.6399	-103.105	186.378	40.3247	-131.24	189.813	29.137	-161.959	200.53	32.4066	-99.948	201.836	26.1822	-122.63	206.803	14.3409	-145.311	214.265	15.3583	-79.4838	223.658	3.28802	-101.584	232.026	-3.70632	-118.873	189.015	43.4026	-45.7145	187.286	43.2295	-20.3597	158.552	56.088	-37.4781	
14	0.116667	127.016	37.1501	-36.5543	105.536	27.4003	-51.5792	93.0405	24.8276	-74.3663	80.0351	21.9151	-97.8054	150.47	51.7098	-107.25	150.153	45.9114	-133.681	148.009	41.4829	-156.094	178.815	46.0255	-105.945	187.929	40.2534	-130.314	190.657	31.9195	-160.972	201.622	31.2152	-98.1231	206.849	24.3508	-125.151	208.041	13.9457	-149.979	213.362	14.1146	-80.3842	225.751	2.63053	-96.6503	236.549	-6.90295	-120.291	193.01	40.7697	-46.8255	185.915	43.33	-18.7517	160.411	53.266	-41.4699	
15	0.125	125.857	39.7049	-38.1841	108.11	28.3682	-54.2522	92.3983	26.9682	-75.116	82.3958	23.6414	-95.5333	151.049	51.754	-107.143	148.472	46.5723	-134.315	148.562	42.7774	-157.137	182.146	45.677	-107.926	186.676	41.3075	-135.1	191.813	34.6364	-159.783	198.79	32.76	-100.21	210.662	24.0891	-119.663	213.128	13.9649	-147.533	214.909	13.1372	-80.4563	225.284	1.09874	-96.6719	237.237	-7.75227	-117.418	194.837	41.5325	-45.6914	190.339	42.9608	-20.4123	160.888	53.5916	-38.6272	
16	0.133333	128.776	36.7773	-36.7293	106.454	28.7191	-55.1587	94.6415	26.2644	-79.569	81.9145	23.6008	-98.3611	152.214	49.5543	-107.587	148.77	45.8934	-132.395	154.224	40.3095	-158.77	181.696	44.459	-103.854	188.13	39.4944	-130.973	198.233	30.8198	-156.406	198.464	29.7006	-94.608	209.128	21.2646	-121.834	213.25	12.2546	-147.632	214.259	10.6838	-76.7517	224.576	-2.55759	-98.6444	237.357	-12.1288	-117.242	192.674	40.1772	-44.728	188.914	41.1417	-16.1729	161.533	51.1063	-37.2091	
17	0.141667	125.625	38.3196	-39.1287	108.579	27.3623	-58.9169	91.3613	27.2634	-76.5717	81.6159	25.2249	-96.0405	155.93	47.1231	-108.19	154.057	43.3511	-133.136	156.324	38.0284	-156.343	185.659	40.2945	-105.954	192.443	35.4202	-133.096	197.009	30.0457	-158.835	199.185	27.7878	-97.5523	211.874	16.6783	-122.072	212.778	9.78536	-144.692	214.173	7.90905	-80.5406	225.11	-6.64001	-97.0608	240.003	-17.3037	-110.921	193.43	37.8262	-44.7903	187.142	39.7273	-14.5252	158.519	51.2274	-38.595	
